# Blender v2.79 (sub 0) OBJ File: 'untitled.blend'
# www.blender.org
mtllib flag.mtl
o Null_10_Cube43_Null_10_Cube43.001
v -0.285757 0.614394 -0.015716
v -0.285757 1.263623 -0.015715
v 0.486150 1.263623 -0.014473
v 0.486150 0.614394 -0.014473
v -0.285757 0.614394 -0.015716
v -0.285757 1.263623 -0.015715
v 0.486150 0.614394 -0.014473
v 0.486150 1.263623 -0.014473
v -0.266631 -4.136350 -0.017978
v -0.266205 -4.136350 -0.015716
v -0.294365 -3.204141 -0.015716
v -0.250939 -0.504292 -0.023763
v -0.250939 1.262086 -0.023762
v -0.250277 1.262086 -0.015715
v -0.250277 -0.504292 -0.015717
v -0.250939 1.262086 -0.023762
v -0.293989 1.262086 -0.015715
v -0.250277 1.262086 -0.015715
v -0.267903 -4.136350 -0.020171
v -0.252913 -0.504292 -0.031566
v -0.252913 1.262086 -0.031564
v -0.252913 1.262086 -0.031564
v -0.269976 -4.136350 -0.022229
v -0.256131 -0.504292 -0.038886
v -0.256131 1.262086 -0.038885
v -0.256131 1.262086 -0.038885
v -0.272791 -4.136350 -0.024090
v -0.260501 -0.504292 -0.045503
v -0.260501 1.262086 -0.045502
v -0.260501 1.262086 -0.045502
v -0.276263 -4.136350 -0.025695
v -0.265890 -0.504292 -0.051215
v -0.265890 1.262086 -0.051213
v -0.265890 1.262086 -0.051213
v -0.280285 -4.136350 -0.026998
v -0.272133 -0.504292 -0.055848
v -0.272133 1.262086 -0.055846
v -0.272133 1.262086 -0.055846
v -0.284733 -4.136350 -0.027957
v -0.279038 -0.504292 -0.059262
v -0.279038 1.262086 -0.059260
v -0.279038 1.262086 -0.059260
v -0.289473 -4.136350 -0.028545
v -0.286396 -0.504292 -0.061352
v -0.286396 1.262086 -0.061350
v -0.286396 1.262086 -0.061350
v -0.294365 -4.136350 -0.028743
v -0.293989 -0.504292 -0.062056
v -0.293989 1.262086 -0.062055
v -0.293989 1.262086 -0.062055
v -0.299253 -4.136350 -0.028545
v -0.301577 -0.504292 -0.061352
v -0.301577 1.262086 -0.061350
v -0.301577 1.262086 -0.061350
v -0.303997 -4.136350 -0.027957
v -0.308941 -0.504292 -0.059262
v -0.308941 1.262086 -0.059260
v -0.308941 1.262086 -0.059260
v -0.308445 -4.136350 -0.026998
v -0.315845 -0.504292 -0.055848
v -0.315845 1.262086 -0.055846
v -0.315845 1.262086 -0.055846
v -0.312464 -4.136350 -0.025695
v -0.322083 -0.504292 -0.051215
v -0.322083 1.262086 -0.051213
v -0.322083 1.262086 -0.051213
v -0.315935 -4.136350 -0.024090
v -0.327473 -0.504292 -0.045503
v -0.327473 1.262086 -0.045502
v -0.327473 1.262086 -0.045502
v -0.318751 -4.136350 -0.022229
v -0.331843 -0.504292 -0.038886
v -0.331843 1.262086 -0.038885
v -0.331843 1.262086 -0.038885
v -0.320827 -4.136350 -0.020171
v -0.335066 -0.504292 -0.031566
v -0.335066 1.262086 -0.031564
v -0.335066 1.262086 -0.031564
v -0.322096 -4.136350 -0.017978
v -0.337034 -0.504292 -0.023763
v -0.337034 1.262086 -0.023762
v -0.337034 1.262086 -0.023762
v -0.322525 -4.136350 -0.015716
v -0.337702 -0.504292 -0.015717
v -0.337702 1.262086 -0.015715
v -0.337702 1.262086 -0.015715
v -0.322096 -4.136350 -0.013454
v -0.337034 -0.504292 -0.007670
v -0.337034 1.262086 -0.007668
v -0.337034 1.262086 -0.007668
v -0.335066 -0.504292 0.000133
v -0.335066 1.262086 0.000134
v -0.335066 1.262086 0.000134
v -0.331843 -0.504292 0.007453
v -0.331843 1.262086 0.007455
v -0.331843 1.262086 0.007455
v -0.327473 -0.504292 0.014070
v -0.327473 1.262086 0.014072
v -0.327473 1.262086 0.014072
v -0.322083 -0.504292 0.019781
v -0.322083 1.262086 0.019783
v -0.322083 1.262086 0.019783
v -0.315845 -0.504292 0.024415
v -0.315845 1.262086 0.024416
v -0.315845 1.262086 0.024416
v -0.308941 -0.504292 0.027829
v -0.308941 1.262086 0.027830
v -0.308941 1.262086 0.027830
v -0.301577 -0.504292 0.029919
v -0.301577 1.262086 0.029920
v -0.301577 1.262086 0.029920
v -0.293989 -0.504292 0.030623
v -0.293989 1.262086 0.030625
v -0.293989 1.262086 0.030625
v -0.286396 -0.504292 0.029919
v -0.286396 1.262086 0.029920
v -0.286396 1.262086 0.029920
v -0.279038 -0.504292 0.027829
v -0.279038 1.262086 0.027830
v -0.279038 1.262086 0.027830
v -0.272133 -0.504292 0.024415
v -0.272133 1.262086 0.024416
v -0.272133 1.262086 0.024416
v -0.265890 -0.504292 0.019781
v -0.265890 1.262086 0.019783
v -0.265890 1.262086 0.019783
v -0.260501 -0.504292 0.014070
v -0.260501 1.262086 0.014072
v -0.260501 1.262086 0.014072
v -0.256131 -0.504292 0.007453
v -0.256131 1.262086 0.007455
v -0.256131 1.262086 0.007455
v -0.252913 -0.504292 0.000133
v -0.252913 1.262086 0.000134
v -0.252913 1.262086 0.000134
v -0.266631 -4.136350 -0.013454
v -0.250939 -0.504292 -0.007670
v -0.250939 1.262086 -0.007668
v -0.250939 1.262086 -0.007668
vt 0.352069 0.759979
vt 0.352069 0.865173
vt 0.246875 0.865173
vt 0.246875 0.759979
vt 0.197071 0.787057
vt 0.197071 0.828239
vt 0.155889 0.828239
vt 0.155889 0.787057
vt 0.197071 0.787057
vt 0.197071 0.828239
vt 0.155889 0.828239
vt 0.155889 0.787057
vt 0.352069 0.759979
vt 0.352069 0.865173
vt 0.246875 0.865173
vt 0.246875 0.759979
vt 0.352069 0.759979
vt 0.352069 0.865173
vt 0.246875 0.759979
vt 0.352069 0.759979
vt 0.352069 0.865173
vt 0.246875 0.865173
vt 0.019829 0.700365
vt 0.019829 0.741548
vt 0.018685 0.741548
vt 0.018685 0.700365
vt 0.059555 0.724532
vt 0.039277 0.720957
vt 0.059868 0.720957
vt 0.020973 0.700365
vt 0.020973 0.741548
vt 0.058626 0.728000
vt 0.022117 0.700365
vt 0.022117 0.741548
vt 0.057109 0.731252
vt 0.023261 0.700365
vt 0.023261 0.741548
vt 0.055051 0.734193
vt 0.024405 0.700365
vt 0.024405 0.741548
vt 0.052513 0.736731
vt 0.025549 0.700365
vt 0.025549 0.741548
vt 0.049573 0.738790
vt 0.026693 0.700365
vt 0.026693 0.741548
vt 0.046319 0.740306
vt 0.027837 0.700365
vt 0.027837 0.741548
vt 0.042852 0.741236
vt 0.028981 0.700365
vt 0.028981 0.741548
vt 0.039277 0.741548
vt 0.030125 0.700365
vt 0.030125 0.741548
vt 0.035701 0.741236
vt 0.031269 0.700365
vt 0.031269 0.741548
vt 0.032234 0.740306
vt 0.032413 0.700365
vt 0.032413 0.741548
vt 0.028981 0.738790
vt 0.033557 0.700365
vt 0.033557 0.741548
vt 0.026041 0.736731
vt 0.034701 0.700365
vt 0.034701 0.741548
vt 0.023503 0.734193
vt 0.035845 0.700365
vt 0.035845 0.741548
vt 0.021444 0.731252
vt 0.036989 0.700365
vt 0.036989 0.741548
vt 0.019927 0.728000
vt 0.038133 0.700365
vt 0.038133 0.741548
vt 0.018998 0.724532
vt 0.039277 0.700365
vt 0.039277 0.741548
vt 0.018685 0.720957
vt 0.040421 0.700365
vt 0.040421 0.741548
vt 0.018998 0.717381
vt 0.041565 0.700365
vt 0.041565 0.741548
vt 0.019927 0.713914
vt 0.042709 0.700365
vt 0.042709 0.741548
vt 0.021444 0.710661
vt 0.043853 0.700365
vt 0.043853 0.741548
vt 0.023503 0.707721
vt 0.044997 0.700365
vt 0.044997 0.741548
vt 0.026041 0.705183
vt 0.046141 0.700365
vt 0.046141 0.741548
vt 0.028981 0.703124
vt 0.047285 0.700365
vt 0.047285 0.741548
vt 0.032234 0.701607
vt 0.048429 0.700365
vt 0.048429 0.741548
vt 0.035701 0.700678
vt 0.049573 0.700365
vt 0.049573 0.741548
vt 0.039277 0.700365
vt 0.050716 0.700365
vt 0.050716 0.741548
vt 0.042852 0.700678
vt 0.051860 0.700365
vt 0.051860 0.741548
vt 0.046319 0.701607
vt 0.053004 0.700365
vt 0.053004 0.741548
vt 0.049573 0.703124
vt 0.054148 0.700365
vt 0.054148 0.741548
vt 0.052513 0.705183
vt 0.055292 0.700365
vt 0.055292 0.741548
vt 0.055051 0.707721
vt 0.056436 0.700365
vt 0.056436 0.741548
vt 0.057109 0.710661
vt 0.057580 0.700365
vt 0.057580 0.741548
vt 0.058626 0.713914
vt 0.058724 0.700365
vt 0.058724 0.741548
vt 0.059555 0.717381
vt 0.059868 0.700365
vt 0.059868 0.741548
vn 0.0016 0.0000 -1.0000
vn 0.0000 0.0000 1.0000
vn -0.0016 -0.0000 1.0000
vn 0.9966 0.0000 -0.0819
vn 0.0000 1.0000 0.0000
vn 0.9694 0.0000 -0.2453
vn 0.9155 0.0000 -0.4024
vn 0.8344 0.0000 -0.5511
vn 0.7274 0.0000 -0.6863
vn 0.5959 0.0000 -0.8031
vn 0.4432 0.0000 -0.8964
vn 0.2732 0.0000 -0.9619
vn 0.0924 0.0000 -0.9957
vn -0.0924 0.0000 -0.9957
vn -0.2731 0.0000 -0.9620
vn -0.4432 0.0000 -0.8964
vn -0.5962 0.0000 -0.8028
vn -0.7273 0.0000 -0.6863
vn -0.8344 0.0000 -0.5511
vn -0.9152 0.0000 -0.4029
vn -0.9696 0.0000 -0.2447
vn -0.9966 0.0000 -0.0826
vn -0.9966 -0.0000 0.0826
vn -0.9696 -0.0000 0.2447
vn -0.9152 -0.0000 0.4029
vn -0.8344 -0.0000 0.5511
vn -0.7273 -0.0000 0.6863
vn -0.5963 -0.0000 0.8028
vn -0.4432 -0.0000 0.8964
vn -0.2731 -0.0000 0.9620
vn -0.0924 -0.0000 0.9957
vn 0.0924 -0.0000 0.9957
vn 0.2732 -0.0000 0.9619
vn 0.4432 -0.0000 0.8964
vn 0.5960 -0.0000 0.8030
vn 0.7273 -0.0000 0.6863
vn 0.8344 -0.0000 0.5511
vn 0.9155 -0.0000 0.4024
vn 0.9694 -0.0000 0.2453
vn 0.9966 -0.0000 0.0819
usemtl Material
s off
f 1/1/1 2/2/1 3/3/1 4/4/1
f 5/5/2 6/6/2 2/7/2 1/8/2
f 7/9/3 8/10/3 6/11/3 5/12/3
f 4/13/2 3/14/2 8/15/2 7/16/2
f 2/17/2 6/18/2 8/15/2 3/19/2
f 5/20/2 1/21/2 4/22/2 7/16/2
f 12/23/4 13/24/4 14/25/4 15/26/4
f 16/27/5 17/28/5 18/29/5
f 20/30/6 21/31/6 13/24/6 12/23/6
f 22/32/5 17/28/5 16/27/5
f 24/33/7 25/34/7 21/31/7 20/30/7
f 26/35/5 17/28/5 22/32/5
f 28/36/8 29/37/8 25/34/8 24/33/8
f 30/38/5 17/28/5 26/35/5
f 32/39/9 33/40/9 29/37/9 28/36/9
f 34/41/5 17/28/5 30/38/5
f 36/42/10 37/43/10 33/40/10 32/39/10
f 38/44/5 17/28/5 34/41/5
f 40/45/11 41/46/11 37/43/11 36/42/11
f 42/47/5 17/28/5 38/44/5
f 44/48/12 45/49/12 41/46/12 40/45/12
f 46/50/5 17/28/5 42/47/5
f 48/51/13 49/52/13 45/49/13 44/48/13
f 50/53/5 17/28/5 46/50/5
f 52/54/14 53/55/14 49/52/14 48/51/14
f 54/56/5 17/28/5 50/53/5
f 56/57/15 57/58/15 53/55/15 52/54/15
f 58/59/5 17/28/5 54/56/5
f 60/60/16 61/61/16 57/58/16 56/57/16
f 62/62/5 17/28/5 58/59/5
f 64/63/17 65/64/17 61/61/17 60/60/17
f 66/65/5 17/28/5 62/62/5
f 68/66/18 69/67/18 65/64/18 64/63/18
f 70/68/5 17/28/5 66/65/5
f 72/69/19 73/70/19 69/67/19 68/66/19
f 74/71/5 17/28/5 70/68/5
f 76/72/20 77/73/20 73/70/20 72/69/20
f 78/74/5 17/28/5 74/71/5
f 80/75/21 81/76/21 77/73/21 76/72/21
f 82/77/5 17/28/5 78/74/5
f 84/78/22 85/79/22 81/76/22 80/75/22
f 86/80/5 17/28/5 82/77/5
f 88/81/23 89/82/23 85/79/23 84/78/23
f 90/83/5 17/28/5 86/80/5
f 91/84/24 92/85/24 89/82/24 88/81/24
f 93/86/5 17/28/5 90/83/5
f 94/87/25 95/88/25 92/85/25 91/84/25
f 96/89/5 17/28/5 93/86/5
f 97/90/26 98/91/26 95/88/26 94/87/26
f 99/92/5 17/28/5 96/89/5
f 100/93/27 101/94/27 98/91/27 97/90/27
f 102/95/5 17/28/5 99/92/5
f 103/96/28 104/97/28 101/94/28 100/93/28
f 105/98/5 17/28/5 102/95/5
f 106/99/29 107/100/29 104/97/29 103/96/29
f 108/101/5 17/28/5 105/98/5
f 109/102/30 110/103/30 107/100/30 106/99/30
f 111/104/5 17/28/5 108/101/5
f 112/105/31 113/106/31 110/103/31 109/102/31
f 114/107/5 17/28/5 111/104/5
f 115/108/32 116/109/32 113/106/32 112/105/32
f 117/110/5 17/28/5 114/107/5
f 118/111/33 119/112/33 116/109/33 115/108/33
f 120/113/5 17/28/5 117/110/5
f 121/114/34 122/115/34 119/112/34 118/111/34
f 123/116/5 17/28/5 120/113/5
f 124/117/35 125/118/35 122/115/35 121/114/35
f 126/119/5 17/28/5 123/116/5
f 127/120/36 128/121/36 125/118/36 124/117/36
f 129/122/5 17/28/5 126/119/5
f 130/123/37 131/124/37 128/121/37 127/120/37
f 132/125/5 17/28/5 129/122/5
f 133/126/38 134/127/38 131/124/38 130/123/38
f 135/128/5 17/28/5 132/125/5
f 137/129/39 138/130/39 134/127/39 133/126/39
f 139/131/5 17/28/5 135/128/5
f 15/132/40 14/133/40 138/130/40 137/129/40
f 18/29/5 17/28/5 139/131/5
