# Blender v2.79 (sub 0) OBJ File: 'untitled.blend'
# www.blender.org
mtllib vaultdoor.mtl
o Cube.005_Cube.010
v -0.310104 0.523854 -0.499311
v -0.291894 0.452427 -0.499311
v -0.310103 0.523854 -0.579331
v -0.291894 0.452427 -0.579331
v -0.487783 0.478556 -0.499311
v -0.469574 0.407129 -0.499311
v -0.487783 0.478556 -0.579331
v -0.469574 0.407129 -0.579331
vn 0.9690 0.2470 0.0000
vn 0.0000 0.0000 -1.0000
vn -0.9690 -0.2470 -0.0000
vn -0.0000 -0.0000 1.0000
vn -0.2470 0.9690 0.0000
vn 0.2470 -0.9690 -0.0000
usemtl None
s off
f 1//1 2//1 4//1 3//1
f 3//2 4//2 8//2 7//2
f 7//3 8//3 6//3 5//3
f 5//4 6//4 2//4 1//4
f 3//5 7//5 5//5 1//5
f 8//6 4//6 2//6 6//6
o Cube.004_Cube.009
v 0.456919 0.939750 -0.499311
v 0.475128 0.868324 -0.499311
v 0.456919 0.939750 -0.579331
v 0.475129 0.868324 -0.579331
v 0.279239 0.894452 -0.499311
v 0.297449 0.823025 -0.499311
v 0.279239 0.894452 -0.579331
v 0.297449 0.823025 -0.579331
vn 0.9690 0.2470 0.0000
vn -0.0000 0.0000 -1.0000
vn -0.9690 -0.2470 0.0000
vn 0.0000 -0.0000 1.0000
vn -0.2470 0.9690 0.0000
vn 0.2470 -0.9690 0.0000
usemtl None
s off
f 9//7 10//7 12//7 11//7
f 11//8 12//8 16//8 15//8
f 15//9 16//9 14//9 13//9
f 13//10 14//10 10//10 9//10
f 11//11 15//11 13//11 9//11
f 16//12 12//12 10//12 14//12
o Cube.003_Cube.008
v -0.104282 1.109031 -0.499312
v -0.171694 1.079215 -0.499312
v -0.104282 1.109031 -0.579331
v -0.171694 1.079215 -0.579331
v -0.178450 1.276724 -0.499312
v -0.245863 1.246909 -0.499312
v -0.178450 1.276724 -0.579331
v -0.245863 1.246909 -0.579331
vn 0.4045 -0.9145 0.0000
vn -0.0000 0.0000 -1.0000
vn -0.4045 0.9145 0.0000
vn -0.0000 0.0000 1.0000
vn 0.9145 0.4045 0.0000
vn -0.9145 -0.4045 0.0000
usemtl None
s off
f 17//13 18//13 20//13 19//13
f 19//14 20//14 24//14 23//14
f 23//15 24//15 22//15 21//15
f 21//16 22//16 18//16 17//16
f 19//17 23//17 21//17 17//17
f 24//18 20//18 18//18 22//18
o Cube.002_Cube.007
v 0.246844 0.099970 -0.499311
v 0.179431 0.070155 -0.499311
v 0.246844 0.099970 -0.579331
v 0.179431 0.070155 -0.579331
v 0.172675 0.267664 -0.499311
v 0.105263 0.237848 -0.499311
v 0.172675 0.267664 -0.579331
v 0.105263 0.237848 -0.579331
vn 0.4045 -0.9145 0.0000
vn -0.0000 0.0000 -1.0000
vn -0.4045 0.9145 0.0000
vn 0.0000 0.0000 1.0000
vn 0.9145 0.4045 0.0000
vn -0.9145 -0.4045 -0.0000
usemtl None
s off
f 25//19 26//19 28//19 27//19
f 27//20 28//20 32//20 31//20
f 31//21 32//21 30//21 29//21
f 29//22 30//22 26//22 25//22
f 27//23 31//23 29//23 25//23
f 32//24 28//24 26//24 30//24
o Cube.001
v -0.499630 1.495433 -0.373103
v -0.499630 -0.496529 -0.373103
v 0.495696 1.495433 -0.373103
v 0.495695 -0.496529 -0.373104
v -0.499630 1.495433 -0.514294
v -0.499630 -0.496529 -0.514295
v 0.495696 1.495433 -0.514295
v 0.495695 -0.496529 -0.514295
v -0.529522 1.111211 -0.411620
v -0.529522 1.025062 -0.411620
v -0.477004 1.111211 -0.411620
v -0.477005 1.025062 -0.411620
v -0.529522 1.111211 -0.464273
v -0.529522 1.025062 -0.464273
v -0.477005 1.111211 -0.464273
v -0.477005 1.025062 -0.464273
v -0.529522 0.637838 -0.411620
v -0.529522 0.551689 -0.411620
v -0.477005 0.637838 -0.411620
v -0.477005 0.551689 -0.411620
v -0.529522 0.637838 -0.464273
v -0.529522 0.551689 -0.464273
v -0.477005 0.637838 -0.464273
v -0.477005 0.551689 -0.464273
v -0.529522 0.200191 -0.411620
v -0.529522 0.114042 -0.411620
v -0.477005 0.200191 -0.411620
v -0.477005 0.114042 -0.411620
v -0.529522 0.200191 -0.464273
v -0.529522 0.114042 -0.464273
v -0.477005 0.200191 -0.464273
v -0.477005 0.114042 -0.464273
v -0.529522 -0.241922 -0.411620
v -0.529522 -0.328071 -0.411620
v -0.477005 -0.241922 -0.411620
v -0.477005 -0.328071 -0.411620
v -0.529522 -0.241922 -0.464273
v -0.529522 -0.328071 -0.464273
v -0.477005 -0.241922 -0.464273
v -0.477005 -0.328071 -0.464273
v -0.529624 1.286059 -0.414478
v -0.529624 1.368138 -0.414478
v -0.529624 1.286059 -0.461792
v -0.529624 1.368138 -0.461792
v -0.447545 1.286059 -0.414478
v -0.447545 1.368138 -0.414478
v -0.447545 1.286059 -0.461792
v -0.447545 1.368138 -0.461792
vt 0.000000 0.000000
vt 1.000000 0.000000
vt 1.000000 1.000000
vt 0.000000 1.000000
vt 0.000000 0.000000
vt 1.000000 0.000000
vt 1.000000 1.000000
vt 0.000000 1.000000
vt 0.000000 0.000000
vt 1.000000 0.000000
vt 1.000000 1.000000
vt 0.000000 1.000000
vt 0.000000 0.000000
vt 1.000000 0.000000
vt 1.000000 1.000000
vt 0.000000 1.000000
vt 1.000000 0.000000
vt 1.000000 1.000000
vt 0.000000 0.000000
vt 0.000000 1.000000
vt 0.000000 0.000000
vt 1.000000 0.000000
vt 1.000000 1.000000
vt 0.000000 1.000000
vt 0.000000 0.000000
vt 1.000000 0.000000
vt 1.000000 1.000000
vt 0.000000 1.000000
vt 0.000000 0.000000
vt 1.000000 0.000000
vt 1.000000 1.000000
vt 0.000000 1.000000
vt 0.000000 0.000000
vt 1.000000 0.000000
vt 1.000000 1.000000
vt 0.000000 1.000000
vt 1.000000 0.000000
vt 1.000000 1.000000
vt 0.000000 0.000000
vt 0.000000 1.000000
vt 0.000000 0.000000
vt 1.000000 0.000000
vt 1.000000 1.000000
vt 0.000000 1.000000
vt 0.000000 0.000000
vt 1.000000 0.000000
vt 1.000000 1.000000
vt 0.000000 1.000000
vt 0.000000 0.000000
vt 1.000000 0.000000
vt 1.000000 1.000000
vt 0.000000 1.000000
vt 0.000000 0.000000
vt 1.000000 0.000000
vt 1.000000 1.000000
vt 0.000000 1.000000
vt 1.000000 0.000000
vt 1.000000 1.000000
vt 0.000000 0.000000
vt 0.000000 1.000000
vt 0.000000 0.000000
vt 1.000000 0.000000
vt 1.000000 1.000000
vt 0.000000 1.000000
vt 0.000000 0.000000
vt 1.000000 0.000000
vt 1.000000 1.000000
vt 0.000000 1.000000
vt 0.000000 0.000000
vt 1.000000 0.000000
vt 1.000000 1.000000
vt 0.000000 1.000000
vt 0.000000 0.000000
vt 1.000000 0.000000
vt 1.000000 1.000000
vt 0.000000 1.000000
vt 1.000000 0.000000
vt 1.000000 1.000000
vt 0.000000 0.000000
vt 0.000000 1.000000
vt 0.000000 0.000000
vt 1.000000 0.000000
vt 1.000000 1.000000
vt 0.000000 1.000000
vt 0.000000 0.000000
vt 1.000000 0.000000
vt 1.000000 1.000000
vt 0.000000 1.000000
vt 0.000000 0.000000
vt 1.000000 0.000000
vt 1.000000 1.000000
vt 0.000000 1.000000
vt 0.000000 0.000000
vt 1.000000 0.000000
vt 1.000000 1.000000
vt 0.000000 1.000000
vt 1.000000 0.000000
vt 1.000000 1.000000
vt 0.000000 0.000000
vt 0.000000 1.000000
vt 0.000000 0.000000
vt 1.000000 0.000000
vt 1.000000 1.000000
vt 0.000000 1.000000
vt 0.000000 0.000000
vt 1.000000 0.000000
vt 1.000000 1.000000
vt 0.000000 1.000000
vt 0.000000 0.000000
vt 1.000000 0.000000
vt 1.000000 1.000000
vt 0.000000 1.000000
vt 0.000000 0.000000
vt 1.000000 0.000000
vt 1.000000 1.000000
vt 0.000000 1.000000
vt 1.000000 0.000000
vt 1.000000 1.000000
vt 0.000000 0.000000
vt 0.000000 1.000000
vn 0.0000 -0.0000 1.0000
vn 1.0000 -0.0000 -0.0000
vn -0.0000 0.0000 -1.0000
vn -1.0000 0.0000 0.0000
vn 0.0000 1.0000 0.0000
vn -0.0000 -1.0000 0.0000
usemtl Material
s off
f 33/1/25 34/2/25 36/3/25 35/4/25
f 35/5/26 36/6/26 40/7/26 39/8/26
f 39/9/27 40/10/27 38/11/27 37/12/27
f 37/13/28 38/14/28 34/15/28 33/16/28
f 35/5/29 39/17/29 37/18/29 33/16/29
f 40/19/30 36/6/30 34/15/30 38/20/30
f 41/21/25 42/22/25 44/23/25 43/24/25
f 43/25/26 44/26/26 48/27/26 47/28/26
f 47/29/27 48/30/27 46/31/27 45/32/27
f 45/33/28 46/34/28 42/35/28 41/36/28
f 43/25/29 47/37/29 45/38/29 41/36/29
f 48/39/30 44/26/30 42/35/30 46/40/30
f 49/41/25 50/42/25 52/43/25 51/44/25
f 51/45/26 52/46/26 56/47/26 55/48/26
f 55/49/27 56/50/27 54/51/27 53/52/27
f 53/53/28 54/54/28 50/55/28 49/56/28
f 51/45/29 55/57/29 53/58/29 49/56/29
f 56/59/30 52/46/30 50/55/30 54/60/30
f 57/61/25 58/62/25 60/63/25 59/64/25
f 59/65/26 60/66/26 64/67/26 63/68/26
f 63/69/27 64/70/27 62/71/27 61/72/27
f 61/73/28 62/74/28 58/75/28 57/76/28
f 59/65/29 63/77/29 61/78/29 57/76/29
f 64/79/30 60/66/30 58/75/30 62/80/30
f 65/81/25 66/82/25 68/83/25 67/84/25
f 67/85/26 68/86/26 72/87/26 71/88/26
f 71/89/27 72/90/27 70/91/27 69/92/27
f 69/93/28 70/94/28 66/95/28 65/96/28
f 67/85/29 71/97/29 69/98/29 65/96/29
f 72/99/30 68/86/30 66/95/30 70/100/30
f 73/101/28 74/102/28 76/103/28 75/104/28
f 75/105/27 76/106/27 80/107/27 79/108/27
f 79/109/26 80/110/26 78/111/26 77/112/26
f 77/113/25 78/114/25 74/115/25 73/116/25
f 75/105/30 79/117/30 77/118/30 73/116/30
f 80/119/29 76/106/29 74/115/29 78/120/29
o Cube
v 0.759290 -0.473600 -0.785116
v 0.170019 0.441670 -0.508806
v 0.207238 0.588020 -0.508806
v -0.162896 0.851759 -0.502590
v -0.200116 0.705408 -0.502590
v -0.200116 0.705408 -0.508807
v -0.162896 0.851759 -0.508807
v -0.148822 0.431370 -0.413196
v -0.274502 -0.062811 -0.413196
v -0.050247 0.376112 -0.413196
v -0.175926 -0.118069 -0.413196
v -0.148822 0.431370 -0.508807
v -0.050247 0.376112 -0.508807
v 0.243930 0.292079 -0.389643
v 0.243930 1.042132 -0.389643
v -0.261274 0.292079 -0.389643
v -0.261274 1.042132 -0.389643
v 0.207238 0.588020 -0.502590
v -0.008672 0.174459 -0.389643
v -0.008672 1.159751 -0.389643
v 0.339839 0.667105 -0.389643
v -0.357183 0.667105 -0.389643
v 0.170019 0.441670 -0.502590
v -0.008672 0.667105 -0.389643
v 0.154500 1.475073 -0.413196
v 0.028821 0.980892 -0.413196
v 0.253076 1.419815 -0.413196
v 0.127396 0.925634 -0.413196
v 0.028821 0.980892 -0.508806
v 0.127396 0.925634 -0.508806
v 0.170019 0.441670 -0.413196
v 0.207238 0.588020 -0.413196
v 0.207238 0.588020 -0.508806
v 0.170019 0.441670 -0.508806
v -0.200116 0.705408 -0.413196
v -0.162897 0.851759 -0.413196
v -0.162896 0.851759 -0.508807
v -0.200116 0.705408 -0.508807
v -0.148822 0.431370 -0.413196
v -0.274502 -0.062811 -0.413196
v -0.175926 -0.118069 -0.413196
v -0.050247 0.376112 -0.413196
v -0.050247 0.376112 -0.508807
v -0.148822 0.431370 -0.508807
v -0.008672 0.174459 -0.389643
v 0.243930 0.292079 -0.389643
v 0.339839 0.667105 -0.389643
v 0.243930 1.042132 -0.389643
v -0.008672 1.159751 -0.389643
v -0.261274 1.042132 -0.389643
v -0.357183 0.667105 -0.389643
v -0.261274 0.292079 -0.389643
v 0.253076 1.419815 -0.413196
v 0.154500 1.475073 -0.413196
v 0.028821 0.980892 -0.413196
v 0.127396 0.925634 -0.413196
v 0.127396 0.925634 -0.508806
v 0.028821 0.980892 -0.508806
v -0.148822 0.431370 -0.502590
v -0.274502 -0.062811 -0.502590
v -0.175926 -0.118069 -0.502590
v -0.050247 0.376112 -0.502590
v -0.008672 0.174459 -0.479037
v 0.243930 0.292079 -0.479037
v 0.339839 0.667105 -0.479037
v 0.243930 1.042132 -0.479037
v -0.008672 1.159751 -0.479037
v -0.261274 1.042132 -0.479037
v -0.357183 0.667105 -0.479037
v -0.261274 0.292079 -0.479037
v -0.261274 0.292079 -0.624018
v -0.261274 1.042132 -0.624018
v -0.357183 0.667105 -0.624018
v -0.008672 0.174459 -0.624017
v -0.008672 1.159751 -0.624017
v 0.243930 1.042132 -0.624017
v 0.339839 0.667105 -0.624017
v 0.243930 0.292079 -0.624017
v -0.008672 0.667105 -0.624017
v 0.222395 1.273229 -0.502590
v 0.123819 1.328487 -0.502590
v 0.028821 0.980892 -0.502590
v 0.127396 0.925634 -0.502590
vt 0.021601 0.105676
vt 0.021601 0.091010
vt 0.021601 0.091010
vt 0.021601 0.105676
vt 0.006936 0.091010
vt 0.006936 0.105676
vt 0.006936 0.105676
vt 0.006936 0.091010
vt 0.021601 0.091010
vt 0.006936 0.091010
vt 0.006936 0.091010
vt 0.021601 0.091010
vt 0.021601 0.105676
vt 0.021601 0.091010
vt 0.021601 0.091010
vt 0.021601 0.105676
vt 0.006936 0.105676
vt 0.021601 0.105676
vt 0.021601 0.105676
vt 0.006936 0.105676
vt 0.021476 0.088009
vt 0.021476 0.088009
vt 0.021476 0.088009
vt 0.021476 0.088009
vt 0.006936 0.091010
vt 0.021601 0.091010
vt 0.021601 0.105676
vt 0.006936 0.105676
vt 0.021476 0.088009
vt 0.021476 0.088009
vt 0.021476 0.088009
vt 0.021476 0.088009
vt 0.021601 0.091010
vt 0.006936 0.091010
vt 0.006936 0.091010
vt 0.021601 0.091010
vt 0.006936 0.091010
vt 0.006936 0.105676
vt 0.021476 0.088009
vt 0.021476 0.088009
vt 0.006936 0.091010
vt 0.021601 0.105676
vt 0.006936 0.105676
vt 0.021601 0.091010
vt 0.021476 0.088009
vt 0.021476 0.088009
vt 0.021476 0.088009
vt 0.021476 0.088009
vt 0.006936 0.105676
vt 0.021601 0.105676
vt 0.021601 0.105676
vt 0.006936 0.105676
vt 0.006936 0.091010
vt 0.021476 0.088009
vt 0.021476 0.088009
vt 0.021476 0.088009
vt 0.021476 0.088009
vt 0.021476 0.088009
vt 0.021476 0.088009
vt 0.021601 0.105676
vt 0.006936 0.105676
vt 0.021601 0.091010
vt 0.021601 0.105676
vt 0.006936 0.105676
vt 0.021476 0.088009
vt 0.006936 0.091010
vt 0.006936 0.091010
vt 0.021601 0.091010
vt 0.021476 0.088009
vt 0.021476 0.088009
vt 0.021476 0.088009
vt 0.021476 0.088009
vt 0.006936 0.105676
vt 0.012965 0.102042
vt 0.009603 0.106033
vt 0.008173 0.099291
vt 0.008495 0.099032
vt 0.008035 0.098702
vt 0.007789 0.099252
vt 0.007481 0.098884
vt 0.007574 0.098371
vt 0.003105 0.100367
vt 0.003105 0.095361
vt 0.010874 0.092839
vt 0.008281 0.098151
vt 0.007897 0.098112
vt 0.006466 0.091370
vt 0.005195 0.104564
vt 0.012965 0.097036
vt 0.008589 0.098519
vn 0.0000 0.0000 1.0000
vn 0.4890 0.8723 -0.0000
vn -0.4890 -0.8723 -0.0000
vn -0.9688 0.2478 -0.0000
vn 0.9688 -0.2478 0.0000
vn 0.9691 -0.2465 0.0000
vn 0.9665 -0.2534 0.0419
vn -0.9688 -0.2478 -0.0000
vn -0.9691 0.2465 -0.0000
vn -0.9665 0.2534 -0.0419
vn -0.4221 0.9065 0.0000
vn 0.2594 0.4627 -0.8477
vn 0.9688 0.2478 0.0000
vn 0.4221 -0.9065 0.0000
vn 0.4221 0.9065 0.0000
vn -0.4221 -0.9065 -0.0000
vn 0.0000 -0.0000 -1.0000
usemtl None_steellocker.png.001
s off
f 82/121/31 83/122/31 113/123/31 114/124/31
f 87/125/31 86/126/31 118/127/31 117/128/31
f 108/129/31 110/130/31 137/131/31 136/132/31
f 92/133/31 93/134/31 123/135/31 124/136/31
f 107/137/31 108/138/31 136/139/31 133/140/31
f 102/141/31 97/142/31 130/143/31 131/144/31
f 88/145/31 89/146/31 91/147/31 90/148/31
f 101/149/31 94/150/31 126/151/31 127/152/31
f 106/153/31 105/154/31 134/155/31 135/156/31
f 90/157/32 93/134/32 92/133/32 88/158/32
f 104/159/31 100/160/31 97/142/31 102/141/31
f 93/134/31 90/157/31 122/161/31 123/135/31
f 105/154/31 107/137/31 133/140/31 134/155/31
f 90/148/31 91/147/31 121/162/31 122/163/31
f 91/147/31 89/146/31 120/164/31 121/162/31
f 96/165/31 102/141/31 131/144/31 132/166/31
f 101/149/31 95/167/31 100/160/31 104/159/31
f 94/150/31 101/149/31 104/159/31 99/168/31
f 109/169/31 106/170/31 135/171/31 138/172/31
f 89/146/31 88/145/31 119/173/31 120/164/31
f 99/168/31 104/159/31 102/141/31 96/165/31
f 105/154/31 106/153/31 108/138/31 107/137/31
f 97/142/31 100/160/31 129/174/31 130/143/31
f 95/167/31 101/149/31 127/152/31 128/175/31
f 110/130/33 108/129/33 106/170/33 109/169/33
f 131/144/34 130/143/34 148/176/34 149/177/34
f 127/152/35 126/151/35 144/178/35 145/179/35
f 122/163/36 121/162/36 141/180/36 142/181/36
f 121/162/33 120/164/33 140/182/33 141/180/33
f 133/140/37 136/139/37 163/183/37 160/184/37
f 132/166/38 131/144/38 149/177/38 150/185/38
f 120/164/39 119/173/39 139/186/39 140/182/39
f 135/156/40 134/155/40 161/187/40 162/188/40
f 130/143/41 129/174/41 147/189/41 148/176/41
f 134/155/42 133/140/42 160/184/42 161/187/42
f 128/175/43 127/152/43 145/179/43 146/190/43
f 126/151/44 125/191/44 143/192/44 144/178/44
f 129/174/45 128/175/45 146/190/45 147/189/45
f 125/191/46 132/166/46 150/185/46 143/192/46
f 88/158/31 92/133/31 124/136/31 119/193/31
f 99/168/31 96/165/31 132/166/31 125/191/31
f 100/160/31 95/167/31 128/175/31 129/174/31
f 110/130/31 109/169/31 138/172/31 137/131/31
f 94/150/31 99/168/31 125/191/31 126/151/31
f 149/194/34 148/195/34 152/196/34 153/197/34
f 159/198/47 155/199/47 156/200/47 157/201/47
f 157/201/43 156/200/43 146/202/43 145/203/43
f 143/204/44 154/205/44 158/206/44 144/207/44
f 155/199/45 147/208/45 146/202/45 156/200/45
f 152/196/41 148/195/41 147/208/41 155/199/41
f 150/209/46 151/210/46 154/205/46 143/204/46
f 153/197/47 152/196/47 155/199/47 159/198/47
f 151/210/47 153/197/47 159/198/47 154/205/47
f 158/206/35 157/201/35 145/203/35 144/207/35
f 154/205/47 159/198/47 157/201/47 158/206/47
f 150/209/38 149/194/38 153/197/38 151/210/38
l 113 112
l 111 114
l 98 112
l 116 117
l 116 84
l 118 115
l 103 111
l 115 85
